<svg width="32" height="33" viewBox="0 0 32 33" fill="none" xmlns="http://www.w3.org/2000/svg">
<path fill-rule="evenodd" clip-rule="evenodd" d="M24.5854 6.36164C24.2338 4.47582 22.4303 3.23391 20.557 3.58775C18.6838 3.9416 17.4501 5.75719 17.8016 7.64301C18.1531 9.52883 19.9566 10.7707 21.8299 10.4169C23.7032 10.063 24.9368 8.24748 24.5854 6.36164ZM20.1253 1.27104C23.2695 0.677122 26.2967 2.76164 26.8866 5.92694C27.4766 9.09221 25.406 12.1397 22.2617 12.7336C19.1174 13.3275 16.0903 11.243 15.5003 8.07769C14.9104 4.9124 16.981 1.86495 20.1253 1.27104Z" fill="#CDDBE9"/>
<path fill-rule="evenodd" clip-rule="evenodd" d="M28.1257 25.3569C27.7742 23.4711 25.9707 22.2292 24.0975 22.583C22.2242 22.9369 20.9905 24.7524 21.342 26.6382C21.6935 28.5241 23.4971 29.766 25.3703 29.4121C27.2436 29.0583 28.4772 27.2427 28.1257 25.3569ZM23.6656 20.2663C26.8099 19.6724 29.837 21.7569 30.427 24.9222C31.017 28.0875 28.9463 31.1349 25.8021 31.7289C22.6579 32.3228 19.6307 30.2383 19.0407 27.073C18.4507 23.9076 20.5214 20.8602 23.6656 20.2663Z" fill="#CDDBE9"/>
<path fill-rule="evenodd" clip-rule="evenodd" d="M10.3475 19.2471C9.99601 17.3613 8.19254 16.1193 6.31923 16.4732C4.44596 16.827 3.21232 18.6426 3.56381 20.5284C3.91529 22.4143 5.71881 23.6562 7.59209 23.3023C9.46536 22.9485 10.699 21.1329 10.3475 19.2471ZM5.88744 14.1564C9.03172 13.5626 12.0588 15.6471 12.6488 18.8124C13.2388 21.9777 11.1681 25.0252 8.02387 25.6191C4.87964 26.213 1.85246 24.1284 1.2625 20.9632C0.672536 17.7978 2.74319 14.7504 5.88744 14.1564Z" fill="#CDDBE9"/>
</svg>
