<?xml version="1.0" encoding="utf-8"?>
<!-- Generator: Adobe Illustrator 25.2.3, SVG Export Plug-In . SVG Version: 6.00 Build 0)  -->
<svg version="1.1" id="Layer_1" xmlns="http://www.w3.org/2000/svg" xmlns:xlink="http://www.w3.org/1999/xlink" x="0px" y="0px"
	 viewBox="0 0 107.2 31.1" style="enable-background:new 0 0 107.2 31.1;" xml:space="preserve">
<style type="text/css">
	.st0{fill:#FFFFFF;}
</style>
<g id="Group_24" transform="translate(-916.225 -72.752)">
	<g id="Group_24-2" transform="translate(916.225 72.752)">
		<path id="Path_27" class="st0" d="M15.5,1L9.7,13l0.2,1.4l0.5,2.5l4.1,13.6h-4L6.7,17.2l-1.8,3.2v9.7H0l0.5-10.3V8.4L0.8,8V5.5
			L0.4,0.7h4.7V11l5.5-10.2l2-0.1l1.7,0.1L15.5,1z"/>
		<path id="Path_28" class="st0" d="M18.5,26.2l-0.4-0.6l0.3-0.4v-5.4l-0.5-0.3l0.2-0.2v-2.1l-0.3-0.4l0.2-1.1V0.3h15.9v1l0.5,2.3
			v1.1L34.3,5l0.7,6.3l-0.1,0.2l-0.3,0.2L32,11.5H31l-0.3,0.3l1,4.8l1.8,6.8l0.4,2.2l-0.1,0.2l0.3,0.3l0.3,1.7l-0.1,0.6l0.4,0.4
			l0.3,2.3h-4.2l-1.9-5.6l-0.6-2l-1.8-8.2l-0.6-3.5h-3.2l0.7,9.1v3.4l0.1,2.8L23,30.8L18.9,31l-0.4-0.4l0-0.7V26.2z M18.5,29.9
			L18.5,29.9L18.5,29.9L18.5,29.9z M30.2,7.6l-0.1-1.2l0.1-1.5h-7.8l0.2,1.2V7l-0.2,0.6H30.2z"/>
		<path id="Path_29" class="st0" d="M53.7,30.7l-0.2,0.2h-0.9l-2.2-0.3l-0.5,0.1L49,29.7l0.1-1.6l-0.3-0.2v-0.3l0.2-0.2l-0.8-1.2
			l0.2-0.6L47,25.9l-1-0.1l-3.1,0.1l-0.4-0.5L42,26.6l-0.7,2.7l-0.2,1.5l-4.1-0.4l1.6-13.1l1.8-9.7l0.4-1.3V4.5l0.3-0.3V3l0.4-0.8
			l0.2-1.9l5.8,0.2l0.2,1.6l0.3,1.1L48.6,4l0.2,0.2v1.7l0.5,0.8l-0.1,0.9l0.3,0l0.9,4.3l0.4,0.5l0.5,3.2l0.5,2l-0.1,0.3l0.8,3.1
			l0.2,1.5l0.1,1.5l0.4,0.8V25l-0.2,0.3l0.2,0.5l0.2,2.7L53.7,30.7z M45.5,8H45l-1.1,9.9h0.4v0.2l-0.7,1.5L43.2,21l0.9-0.2l3.3-0.2
			L45.5,8z"/>
		<path id="Path_30" class="st0" d="M71.8,1L66,13l0.2,1.4l0.5,2.5l4.1,13.6h-4L63,17.2l-1.8,3.2v9.7h-4.9l0.5-10.3V8.4L57.1,8V5.5
			l-0.3-4.8h4.7V11L67,0.8l2-0.1l1.7,0.1L71.8,1z"/>
		<path id="Path_31" class="st0" d="M89,31l-1.6-0.1L86.8,31l-0.4-0.2L84.8,31H74.4v-1.9L74,27.7V0.5l-0.4-0.2h14.2l0.9,0.3v4.4
			l-0.7-0.3h-8l-1.7,0.1l-0.2,0.2V8l0.2,1.6v2.9l0.3,0.3h4.2l2.7-0.3l0.1,1.8l-0.2,0.2l0.2,3h-7.5l0.5,2.7v3.4l-0.1,1.3l0.2,1.8H89
			V31z"/>
		<path id="Path_32" class="st0" d="M107.2,20.2l-0.1,0.2v6.4l-0.3,0.1v2.3l0.2,1.2h-3.7l-7.5-19.1v19h-4.1l-0.5-2.6l0.2-0.2
			L90.7,20l0.2-0.8V1.5l-0.2-1.2h3.2L94.1,0l0.5,0.2l1-0.2l0.8,3.3L97,3.9l1.3,3.4l0.5,0.2l-0.2,0.2l0.7,1.4l-0.1,0.2l3.4,8.6
			l0.3,0.5v-2.2L102.2,9l0.2-0.2v-4L102,4.6l0.3-0.3V0.2h4.4v10.1l0.3,0.3l-0.2,0.6l0.3,0.5v7.3L107.2,20.2z"/>
	</g>
</g>
</svg>
