<?xml version="1.0" encoding="utf-8"?>
<!-- Generator: Adobe Illustrator 25.2.3, SVG Export Plug-In . SVG Version: 6.00 Build 0)  -->
<svg version="1.1" id="Layer_1" xmlns="http://www.w3.org/2000/svg" xmlns:xlink="http://www.w3.org/1999/xlink" x="0px" y="0px"
	 viewBox="0 0 279.2 279.2" style="enable-background:new 0 0 279.2 279.2;" xml:space="preserve">
<style type="text/css">
	.st0{fill:#F47820;}
	.st1{fill:#0F2128;}
</style>
<circle id="Ellipse_4" class="st0" cx="139.6" cy="139.6" r="139.6"/>
<g id="jF2q95" transform="translate(991.957 335.333)">
	<g id="Group_18">
		<g id="Group_17">
			<path id="Path_10" class="st1" d="M-779.1-244.2c1.6-0.2,3.1-0.4,4.6-0.6c4.2-0.4,8.4-0.4,12.6,0c5.3,0.4,10.3,2.4,14.5,5.6
				c5.2,3.8,9,8.7,9.9,15.2c0.5,3.7-0.1,7.5-1.6,11c-1.7,4.1-3.7,8-5.4,12.1c-1,2.4-1.7,5-2.1,7.5c-0.4,3.4,1.1,6.4,3.3,9.1
				c0.5,0.6,0.9,1.2,1.3,1.8c-1.1,1.1-2.1,0.5-2.8-0.2c-4.6-4.3-6.8-9.5-5.5-15.8c0.8-4.2,2.2-8.2,3.3-12.3c0.7-2.6,1.2-5.2,1.5-7.9
				c0.4-4.7-2-8.3-5.5-11.3c-3-2.6-6.6-4.2-10.6-4.6c-3.3-0.2-6.6,0-9.9,0.6c-2.3,0.5-4.6,1.1-6.9,1.9c-0.7,0.2-1.1,0.4-1,1.2
				c0.1,2.9,0.4,5.7,0.2,8.6c-0.1,2.3-0.4,4.5-1,6.7c-1.2,4.6-3.9,8.8-7.6,11.8c2.1-0.1,4.3-0.3,6.5-0.3c5-0.1,9.3,1.8,13.3,4.7
				c3.5,2.5,6.4,5.8,8.3,9.7c2.1,3.8,3,8.2,2.4,12.5c-0.7,5.7-3.5,10.2-6.8,14.6c-3.2,4.1-6.9,7.8-9.2,12.6
				c-2.5,5.1-2.5,10.1,0.7,15c0.5,0.7,0.9,1.4-0.2,2c-2.8-1.9-4-4.7-4.8-7.8c-1.7-6.1,0.1-11.6,3.2-16.9c2.5-4.2,5.1-8.3,7.6-12.5
				c1.5-2.6,2.2-5.4,2.1-8.4c-0.2-3.2-1.4-6.3-3.4-8.8c-2.4-3.4-6.1-5.7-10.2-6.5c-3.1-0.5-6.4,0-9.2,1.4c-4.1,1.8-7.5,4.5-10.9,7.2
				c-4.2,3.2-8.7,5.7-14,6.1c-7.3,0.7-14.2-0.5-20.1-5.4c-2.2-1.8-4.3-3.8-6.7-5.9c0.5,2.1,0.8,4.1,1.4,6.1
				c2.3,7.2,7.1,12.4,13.5,16.1c5.9,3.4,12.1,6.4,18.1,9.7c5.3,2.9,10.5,6.1,14.5,10.7c3.1,3.5,5.1,7.8,5.9,12.4
				c1.1,5.7,0.2,11.6-2.6,16.7c-3.9,7.3-10,11.9-18.2,13.4c-7.3,1.4-14.8-0.6-20.4-5.4c-3.4-2.9-6.5-6.1-9.6-9.3
				c-1.1-0.8-1.3-2.3-0.5-3.4c0,0,0.1-0.1,0.1-0.1c1,0.9,1.8,1.8,2.7,2.6c1,1,2,1.9,3.1,2.8c3.3,2.4,6.5,5,10.4,6.4
				c5.8,2,11.4,1.8,16.8-1.4c4.4-2.5,7.5-6.7,8.5-11.7c1.4-6.7,0-12.5-5.6-17c-3.5-2.6-7.3-4.8-11.3-6.5c-4-1.8-8.1-3.5-12-5.5
				c-4.5-2.1-8.9-4.5-13.1-7.1c-6.5-4.4-11.6-10.7-14.4-18c-1.2,2.2-2.4,4.6-3.8,6.9c-3.8,6.1-9.2,11-15.6,14.2
				c-6.5,3.2-13.2,6-19.6,9.2c-4.2,1.9-8.2,4.2-12,6.8c-3.7,2.6-6,6.8-6.1,11.3c-0.3,4.4,0.9,8.7,3.4,12.3c2.7,3.9,7,6.6,11.7,7.4
				c6.4,1.2,12.1-0.8,17.2-4.5c1.9-1.4,3.8-2.7,5.7-4.1c0.2-0.2,0.4-0.4,0.5-0.6c1-1.1,2-2.2,2.9-3.2c1.2,0.6,1.3,1.2,0.8,1.9
				c-0.5,1-1.2,1.9-1.9,2.8c-3.8,4-7.7,7.9-12.6,10.6c-6.5,3.6-14.2,4.1-21,1.4c-5.3-2-9.8-5.8-12.7-10.6c-3-4.7-4.4-10.4-3.8-16
				c0.4-5.1,2.4-10,5.7-14c3.9-4.8,9-8,14.3-10.8c5.2-2.8,10.5-5.4,15.6-8.2c4.1-2.1,7.8-4.8,11-8.1c3.3-3.6,5.6-8.1,6.5-12.9
				c0.2-1,0.4-2.1,0.4-3.2c-1.4,1.5-2.8,3-4.3,4.4c-4,3.9-9.2,6.4-14.7,7.1c-7.2,0.8-13.9-0.5-19.9-5c-3.3-2.6-6.8-5-10.4-7.2
				c-6.7-4-13.7-3.9-19.7,2c-2.5,2.3-4.2,5.4-5,8.7c-0.4,2.4-0.2,4.8,0.6,7.1c1.3,4.6,4.1,8.4,6.7,12.3c2.6,3.9,4.9,7.9,5.7,12.6
				c1,5.2-0.4,10.6-4,14.5c-0.2,0.3-0.5,0.5-0.8,0.6c-0.3,0.1-0.6,0.1-0.9,0.1c0-0.3-0.2-0.7-0.1-1c0.6-1.2,1.3-2.4,1.8-3.6
				c2.1-5.5,0.6-10.5-2.6-15.1c-2.6-3.7-5.5-7.1-8.2-10.6c-2.8-3.3-4.8-7.2-5.8-11.5c-1.2-5.5-0.2-11.2,2.8-15.9
				c3.4-5.9,8.9-10.3,15.5-12.3c3.9-1,8-1.1,11.9-0.3l0.4-0.3c-0.7-0.6-1.5-1.1-2.2-1.8c-3.4-3.3-5.7-7.8-6.3-12.5
				c-0.4-3-0.6-5.9-0.6-8.9c0-1.2,0.1-2.4,0.3-3.5c0.1-0.6-0.2-1.1-0.8-1.3c-0.1,0-0.1,0-0.2,0c-3.3-0.8-6.6-1.6-10-2.3
				c-3.3-0.7-6.7-0.5-10,0.6c-6,2-10.9,5.4-12.5,12c-0.6,2.8-0.4,5.6,0.5,8.3c1.2,4.2,2.6,8.4,3.7,12.7c1.8,6.2,0.1,12.9-4.4,17.5
				c-0.7,0.6-1.4,1.1-2.2,1.4c-0.3,0.1-0.7,0.1-1-0.2c-0.1-0.3-0.1-0.7,0.1-1c0.5-0.8,1.1-1.6,1.7-2.4c2.7-3.8,2.9-7.9,1.5-12.1
				c-0.9-2.6-2-5.1-3.2-7.5c-1.9-4.1-3.9-8.2-4.8-12.7c-1.1-5.4,0.2-11,3.6-15.3c4.2-5.7,10.2-9.6,17.1-11.1
				c1.8-0.5,3.7-0.7,5.6-0.8c4.3,0,8.6,0.3,13,0.5c0.6,0,1.3,0.2,2.2,0.3c-1-2-1.8-3.7-2.8-5.4c-1.8-2.7-2.8-5.9-2.8-9.2
				c0.1-5.7,3.2-9.4,8.1-11.3c2.6-1,5.3-1.6,8.1-1.7c4.5-0.3,8.9,1.3,12.2,4.4c1.2,1.4,2.2,3,3,4.7c0.2,0.4-0.1,1.2-0.1,1.8
				l-0.5,0.1c-0.7-1-1.5-2-2.1-3c-1.8-2.6-4.6-4.2-7.7-4.4c-3.6-0.7-7.4,0.1-10.4,2.2c-3.4,2.5-4.1,5.8-2.5,9.4
				c1.2,2.4,2.7,4.6,4.3,6.7c1.8,2.5,3.1,5.4,3.6,8.5c0.1,0.4,0.4,0.8,0.8,1c4,1.8,7.7,4.2,11,7.1c4.6,3.8,8.9,7.9,13.7,11.5
				c2.5,2,5.6,3,8.8,2.9c5.1-0.1,9.5-3.5,10.8-8.4c0.5-1.5,0.1-3.1-0.9-4.3c-2.2-2.8-3.1-6.1-1.6-9.5c1.6-3.8,1.3-7.5,0.1-11.3
				c-1.5-4.7-0.9-9.4,1-14c2.3-5.6,5.1-10.9,9.6-15.1c2.5-2.4,5.7-4,9.1-4.3c2.7-0.1,5.4,0.7,7.6,2.2c3.9,2.5,7,6.1,9.1,10.2
				c1.7,3.2,3.1,6.5,4.4,9.9c1.3,3.8,1.2,8-0.2,11.8c-1.2,3.2-1.2,6.8,0.1,10c1.5,3.4,0.9,7.3-1.5,10.1c-1.4,1.7-1.2,3.4-0.6,5.1
				c2,5.6,8,8.7,13.8,7.1c3.6-1.1,6.9-3,9.7-5.5c5.1-4.4,9.7-9.4,15.6-13c1.6-1,3.3-1.8,4.9-2.7c0.5-0.2,0.8-0.7,1-1.2
				c0.4-4.2,2.7-7.5,5.2-10.7c1.7-1.9,2.9-4.3,3.4-6.9c0.5-3.5-1.2-6.1-4.9-7.8c-4.4-1.9-8.9-2.1-13.3,0.4c-1.9,1.1-3.4,2.7-4.4,4.6
				c-0.3,0.4-0.8,0.8-1.2,1.1c-0.2-0.6-0.2-1.2-0.2-1.8c1-3.9,3.9-6.1,7.3-7.5c2.6-1.2,5.5-1.7,8.4-1.5c5.4,0.5,10.3,2,13.6,6.7
				c2.1,3,2.5,6.9,1.2,10.3c-1.2,3.1-2.6,6.1-4.1,9.1C-778.6-245.2-778.8-244.7-779.1-244.2z M-812.9-208.5
				c10.3,2.1,21.8-5.2,22.1-16.6c-2,2-3.8,3.8-5.7,5.5c-2.1,2-4,4.3-6.4,5.8C-806.1-211.8-809.4-210.1-812.9-208.5L-812.9-208.5z
				 M-891.5-208.7c-9.7-2.1-15.6-9.5-22.3-15.9c0.1,5.2,2.7,10,7.1,12.8C-902.3-208.7-896.8-207.6-891.5-208.7L-891.5-208.7z
				 M-828.5-200.4c6.5,10,15.3,11.4,24.1,4.2C-813-195.1-821-196.1-828.5-200.4L-828.5-200.4z M-875.9-200.8
				c-3.8,2.2-7.6,3.9-11.8,4.4c-4.1,0.4-8.3,0.5-12.1,0.7C-891-188.7-882.5-190.7-875.9-200.8L-875.9-200.8z"/>
		</g>
	</g>
</g>
</svg>
