<?xml version="1.0" encoding="utf-8"?>
<!-- Generator: Adobe Illustrator 25.2.3, SVG Export Plug-In . SVG Version: 6.00 Build 0)  -->
<svg version="1.1" id="Layer_1" xmlns="http://www.w3.org/2000/svg" xmlns:xlink="http://www.w3.org/1999/xlink" x="0px" y="0px"
	 viewBox="0 0 522.7 515.3" style="enable-background:new 0 0 522.7 515.3;" xml:space="preserve">
<style type="text/css">
	.st0{fill:#102F39;}
	.st1{fill:#F47820;}
	.st2{fill:#0F2128;}
	.st3{fill:#FFFFFF;}
</style>
<g id="Group_21" transform="translate(-963.38 -180.358)">
	<circle id="Ellipse_1" class="st0" cx="1064" cy="310.3" r="12.2"/>
	<circle id="Ellipse_2" class="st0" cx="1053.9" cy="277.5" r="6.1"/>
	<circle id="Ellipse_3" class="st0" cx="1060" cy="251.4" r="3.5"/>
	<circle id="Ellipse_4" class="st1" cx="1107" cy="425.5" r="139.6"/>
	<circle id="Ellipse_5" class="st0" cx="979.5" cy="679.6" r="12.2"/>
	<circle id="Ellipse_6" class="st0" cx="1242.2" cy="602.1" r="12.2"/>
	<circle id="Ellipse_7" class="st0" cx="1246.6" cy="562.8" r="6.5"/>
	<circle id="Ellipse_8" class="st0" cx="1238.6" cy="529.7" r="3.6"/>
	<circle id="Ellipse_9" class="st0" cx="1254.4" cy="310.3" r="3.6"/>
	<circle id="Ellipse_10" class="st0" cx="1258" cy="293.9" r="3.6"/>
	<circle id="Ellipse_11" class="st0" cx="969.5" cy="646.8" r="6.1"/>
	<circle id="Ellipse_12" class="st0" cx="975.5" cy="620.7" r="3.5"/>
	<g id="jF2q95" transform="translate(991.957 335.333)">
		<g id="Group_18">
			<g id="Group_17">
				<path id="Path_10" class="st2" d="M188.3,41.7c1.6-0.2,3.1-0.4,4.6-0.6c4.2-0.4,8.4-0.4,12.6,0c5.3,0.4,10.3,2.4,14.5,5.6
					c5.2,3.8,9,8.7,9.9,15.2c0.5,3.7-0.1,7.5-1.6,11c-1.7,4.1-3.7,8-5.4,12.1c-1,2.4-1.7,5-2.1,7.5c-0.4,3.4,1.1,6.4,3.3,9.1
					c0.5,0.6,0.9,1.2,1.3,1.8c-1.1,1.1-2.1,0.5-2.8-0.2c-4.6-4.3-6.8-9.5-5.5-15.8c0.8-4.2,2.2-8.2,3.3-12.3
					c0.7-2.6,1.2-5.2,1.5-7.9c0.4-4.7-2-8.3-5.5-11.3c-3-2.6-6.6-4.2-10.6-4.6c-3.3-0.2-6.6,0-9.9,0.6c-2.3,0.5-4.6,1.1-6.9,1.9
					c-0.7,0.2-1.1,0.4-1,1.2c0.1,2.9,0.4,5.7,0.2,8.6c-0.1,2.3-0.4,4.5-1,6.7c-1.2,4.6-3.9,8.8-7.6,11.8c2.1-0.1,4.3-0.3,6.5-0.3
					c5-0.1,9.3,1.8,13.3,4.7c3.5,2.5,6.4,5.8,8.3,9.7c2.1,3.8,3,8.2,2.4,12.5c-0.7,5.7-3.5,10.2-6.8,14.6c-3.2,4.1-6.9,7.8-9.2,12.6
					c-2.5,5.1-2.5,10.1,0.7,15c0.5,0.7,0.9,1.4-0.2,2c-2.8-1.9-4-4.7-4.8-7.8c-1.7-6.1,0.1-11.6,3.2-16.9c2.5-4.2,5.1-8.3,7.6-12.5
					c1.5-2.6,2.2-5.4,2.1-8.4c-0.2-3.2-1.4-6.3-3.4-8.8c-2.4-3.4-6.1-5.7-10.2-6.5c-3.1-0.5-6.4,0-9.2,1.4
					c-4.1,1.8-7.5,4.5-10.9,7.2c-4.2,3.2-8.7,5.7-14,6.1c-7.3,0.7-14.2-0.5-20.1-5.4c-2.2-1.8-4.3-3.8-6.7-5.9
					c0.5,2.1,0.8,4.1,1.4,6.1c2.3,7.2,7.1,12.4,13.5,16.1c5.9,3.4,12.1,6.4,18.1,9.7c5.3,2.9,10.5,6.1,14.5,10.7
					c3.1,3.5,5.1,7.8,5.9,12.4c1.1,5.7,0.2,11.6-2.6,16.7c-3.9,7.3-10,11.9-18.2,13.4c-7.3,1.4-14.8-0.6-20.4-5.4
					c-3.4-2.9-6.5-6.1-9.6-9.3c-1.1-0.8-1.3-2.3-0.5-3.4c0,0,0.1-0.1,0.1-0.1c1,0.9,1.8,1.8,2.7,2.6c1,1,2,1.9,3.1,2.8
					c3.3,2.4,6.5,5,10.4,6.4c5.8,2,11.4,1.8,16.8-1.4c4.4-2.5,7.5-6.7,8.5-11.7c1.4-6.7,0-12.5-5.6-17c-3.5-2.6-7.3-4.8-11.3-6.5
					c-4-1.8-8.1-3.5-12-5.5c-4.5-2.1-8.9-4.5-13.1-7.1c-6.5-4.4-11.6-10.7-14.4-18c-1.2,2.2-2.4,4.6-3.8,6.9
					c-3.8,6.1-9.2,11-15.6,14.2c-6.5,3.2-13.2,6-19.6,9.2c-4.2,1.9-8.2,4.2-12,6.8c-3.7,2.6-6,6.8-6.1,11.3
					c-0.3,4.4,0.9,8.7,3.4,12.3c2.7,3.9,7,6.6,11.7,7.4c6.4,1.2,12.1-0.8,17.2-4.5c1.9-1.4,3.8-2.7,5.7-4.1c0.2-0.2,0.4-0.4,0.5-0.6
					c1-1.1,2-2.2,2.9-3.2c1.2,0.6,1.3,1.2,0.8,1.9c-0.5,1-1.2,1.9-1.9,2.8c-3.8,4-7.7,7.9-12.6,10.6c-6.5,3.6-14.2,4.1-21,1.4
					c-5.3-2-9.8-5.8-12.7-10.6c-3-4.7-4.4-10.4-3.8-16c0.4-5.1,2.4-10,5.7-14c3.9-4.8,9-8,14.3-10.8c5.2-2.8,10.5-5.4,15.6-8.2
					c4.1-2.1,7.8-4.8,11-8.1c3.3-3.6,5.6-8.1,6.5-12.9c0.2-1,0.4-2.1,0.4-3.2c-1.4,1.5-2.8,3-4.3,4.4c-4,3.9-9.2,6.4-14.7,7.1
					c-7.2,0.8-13.9-0.5-19.9-5c-3.3-2.6-6.8-5-10.4-7.2c-6.7-4-13.7-3.9-19.7,2c-2.5,2.3-4.2,5.4-5,8.7c-0.4,2.4-0.2,4.8,0.6,7.1
					c1.3,4.6,4.1,8.4,6.7,12.3c2.6,3.9,4.9,7.9,5.7,12.6c1,5.2-0.4,10.6-4,14.5c-0.2,0.3-0.5,0.5-0.8,0.6c-0.3,0.1-0.6,0.1-0.9,0.1
					c0-0.3-0.2-0.7-0.1-1c0.6-1.2,1.3-2.4,1.8-3.6c2.1-5.5,0.6-10.5-2.6-15.1c-2.6-3.7-5.5-7.1-8.2-10.6c-2.8-3.3-4.8-7.2-5.8-11.5
					c-1.2-5.5-0.2-11.2,2.8-15.9c3.4-5.9,8.9-10.3,15.5-12.3c3.9-1,8-1.1,11.9-0.3l0.4-0.3c-0.7-0.6-1.5-1.1-2.2-1.8
					c-3.4-3.3-5.7-7.8-6.3-12.5c-0.4-3-0.6-5.9-0.6-8.9c0-1.2,0.1-2.4,0.3-3.5c0.1-0.6-0.2-1.1-0.8-1.3c-0.1,0-0.1,0-0.2,0
					c-3.3-0.8-6.6-1.6-10-2.3c-3.3-0.7-6.7-0.5-10,0.6c-6,2-10.9,5.4-12.5,12c-0.6,2.8-0.4,5.6,0.5,8.3c1.2,4.2,2.6,8.4,3.7,12.7
					c1.8,6.2,0.1,12.9-4.4,17.5c-0.7,0.6-1.4,1.1-2.2,1.4c-0.3,0.1-0.7,0.1-1-0.2c-0.1-0.3-0.1-0.7,0.1-1c0.5-0.8,1.1-1.6,1.7-2.4
					c2.7-3.8,2.9-7.9,1.5-12.1c-0.9-2.6-2-5.1-3.2-7.5C3.3,76.6,1.3,72.5,0.4,68C-0.7,62.6,0.6,57,4,52.7
					c4.2-5.7,10.2-9.6,17.1-11.1c1.8-0.5,3.7-0.7,5.6-0.8c4.3,0,8.6,0.3,13,0.5c0.6,0,1.3,0.2,2.2,0.3c-1-2-1.8-3.7-2.8-5.4
					c-1.8-2.7-2.8-5.9-2.8-9.2c0.1-5.7,3.2-9.4,8.1-11.3c2.6-1,5.3-1.6,8.1-1.7c4.5-0.3,8.9,1.3,12.2,4.4c1.2,1.4,2.2,3,3,4.7
					c0.2,0.4-0.1,1.2-0.1,1.8l-0.5,0.1c-0.7-1-1.5-2-2.1-3c-1.8-2.6-4.6-4.2-7.7-4.4c-3.6-0.7-7.4,0.1-10.4,2.2
					c-3.4,2.5-4.1,5.8-2.5,9.4c1.2,2.4,2.7,4.6,4.3,6.7c1.8,2.5,3.1,5.4,3.6,8.5c0.1,0.4,0.4,0.8,0.8,1c4,1.8,7.7,4.2,11,7.1
					c4.6,3.8,8.9,7.9,13.7,11.5c2.5,2,5.6,3,8.8,2.9c5.1-0.1,9.5-3.5,10.8-8.4c0.5-1.5,0.1-3.1-0.9-4.3c-2.2-2.8-3.1-6.1-1.6-9.5
					c1.6-3.8,1.3-7.5,0.1-11.3c-1.5-4.7-0.9-9.4,1-14c2.3-5.6,5.1-10.9,9.6-15.1c2.5-2.4,5.7-4,9.1-4.3c2.7-0.1,5.4,0.7,7.6,2.2
					c3.9,2.5,7,6.1,9.1,10.2c1.7,3.2,3.1,6.5,4.4,9.9c1.3,3.8,1.2,8-0.2,11.8c-1.2,3.2-1.2,6.8,0.1,10c1.5,3.4,0.9,7.3-1.5,10.1
					c-1.4,1.7-1.2,3.4-0.6,5.1c2,5.6,8,8.7,13.8,7.1c3.6-1.1,6.9-3,9.7-5.5c5.1-4.4,9.7-9.4,15.6-13c1.6-1,3.3-1.8,4.9-2.7
					c0.5-0.2,0.8-0.7,1-1.2c0.4-4.2,2.7-7.5,5.2-10.7c1.7-1.9,2.9-4.3,3.4-6.9c0.5-3.5-1.2-6.1-4.9-7.8c-4.4-1.9-8.9-2.1-13.3,0.4
					c-1.9,1.1-3.4,2.7-4.4,4.6c-0.3,0.4-0.8,0.8-1.2,1.1c-0.2-0.6-0.2-1.2-0.2-1.8c1-3.9,3.9-6.1,7.3-7.5c2.6-1.2,5.5-1.7,8.4-1.5
					c5.4,0.5,10.3,2,13.6,6.7c2.1,3,2.5,6.9,1.2,10.3c-1.2,3.1-2.6,6.1-4.1,9.1C188.8,40.7,188.5,41.1,188.3,41.7z M154.5,77.4
					c10.3,2.1,21.8-5.2,22.1-16.6c-2,2-3.8,3.8-5.7,5.5c-2.1,2-4,4.3-6.4,5.8C161.3,74,157.9,75.8,154.5,77.4L154.5,77.4z
					 M75.9,77.2c-9.7-2.1-15.6-9.5-22.3-15.9c0.1,5.2,2.7,10,7.1,12.8C65.1,77.2,70.6,78.3,75.9,77.2L75.9,77.2z M138.9,85.4
					c6.5,10,15.3,11.4,24.1,4.2C154.4,90.7,146.3,89.7,138.9,85.4L138.9,85.4z M91.5,85.1c-3.8,2.2-7.6,3.9-11.8,4.4
					c-4.1,0.4-8.3,0.5-12.1,0.7C76.3,97.1,84.9,95.2,91.5,85.1L91.5,85.1z"/>
			</g>
		</g>
	</g>
	<g id="Group_19" transform="translate(1287.741 180.358)">
		<path id="Path_11" class="st3" d="M5,440.8l57.3,27.8l6.6-0.8l12.2-2.6l65.5-19.6V465l-63.9,18.2l15.4,8.4h46.7v23.6l-49.7-2.6
			H40.3l-1.8-1h-12l-23.2,1.6v-22.4h49.9L4,464.2l-0.4-9.6l0.6-8.2L5,440.8z"/>
		<path id="Path_12" class="st3" d="M126.2,426.6l-2.8,1.8l-2-1.4h-26l-1.4,2.2l-1-1H82.7l-2,1.4l-5.4-1H1.2v-76.3H6l11.2-2.6h5.4
			l1.4,0.6l30.2-3.4l1,0.6l0.8,1.4l-0.8,12.4v5.2l1.4,1.4l23-4.8l32.8-8.4l10.6-2l0.8,0.6l1.4-1.4l8.2-1.4l2.8,0.4l2-1.8l11-1.6
			v20.4l-26.8,9.2l-9.8,2.8l-39.7,8.4l-16.8,3v15.4l43.7-3.2h16.4l13.6-0.6l18.2,2l0.8,19.6l-1.8,1.8l-3.4,0.2L126.2,426.6z
			 M143.6,426.6l0.2,0.2h-0.4L143.6,426.6z M36.4,370.3l-5.8,0.4l-7.2-0.4v37.2l6-1.2h4.2l2.8,1.2L36.4,370.3z"/>
		<path id="Path_13" class="st3" d="M147.6,257.3l0.8,0.8v4.4l-1.6,10.6l0.4,2.6l-4.4,4.2l-7.6-0.4l-1,1.6h-1.6l-1-1l-5.8,3.6l-3-1
			l1.6,6.4l-0.4,5l0.6,14.8l-2.6,2l5.8,2.2l13,3.2l7,0.8L146,337l-63.1-7.6l-46.7-8.8l-6.2-2h-8.4l-1.6-1.4h-5.8l-3.8-2L1.2,314
			l1.2-27.8l7.6-0.8l5.2-1.6l4-2l0.8-1h8.2l4-2.4l4.4,0.4l-0.2-1.4l20.6-4.2l2.4-1.8l15.4-2.6l9.6-2.6l1.6,0.6l15-4l7.2-1.2l7-0.4
			l3.8-2h1l1.6,1l2.2-0.8l12.8-1.2L147.6,257.3z M38.6,296.6v2.4l47.5,5.2v-1.8h1.2l7,3.2l6.4,1.8l-0.8-4.2l-1-16L38.6,296.6z"/>
		<path id="Path_14" class="st3" d="M5,170l57.3,27.8l6.6-0.8l12.2-2.6l65.5-19.6v19.4l-63.9,18.2l15.4,8.4h46.7v23.6l-49.7-2.6
			H40.3l-1.8-1h-12l-23.2,1.6v-22.4h49.9L4,193.5l-0.4-9.6l0.6-8.2L5,170z"/>
		<path id="Path_15" class="st3" d="M149,87.3l-0.4,7.8l0.6,3l-1.2,1.8l1.2,7.8v50.1h-9l-7,1.6H2.4l-0.8,1.8V92.9l1.6-4.2h21.2
			L23,91.9v38.5l0.4,8.2l1.2,1.2h14l7.6-1h13.8l1.4-1.6v-20l-1.4-13l8.6-0.4l0.8,0.8l14.2-1v36.3l13-2.4h16.4l6.4,0.6l8.6-0.8V87.3
			H149z"/>
		<path id="Path_16" class="st3" d="M97.3,0l0.8,0.6H129l0.6,1.6h11.2l5.8-0.8V19L54.9,55.3H146v19.6l-12.6,2.2l-1.2-1.2l-35.8,3.4
			l-4-1H7l-6,1V63.9l-1-1l1-2.4l-1-4.6l15.8-4l2.8-2.8l16.2-6.2l1.2-2.2l1.2,1l6.8-3.4l1.2,0.6l41.3-16.4l2.2-1.6H78.3l-34.8,3.4
			l-1.2-1h-19l-1,1.6l-1.4-1.6H1v-21h48.7l1.6-1.6l3,1.2l2.4-1.6h35L97.3,0z"/>
	</g>
	<g id="Group_20" transform="translate(1462.018 261.22)">
		<path id="Path_17" class="st1" d="M0,332.9c0-2.5,0.5-5,1.4-7.3l5.9,0.5c-0.9,1.9-1.4,4-1.4,6.1c0,3.9,1.6,7.5,6,7.5
			c4.2,0,6.2-3.5,6.2-7.5c0-2.2-0.6-4.3-1.8-6.2l5.8-1.1c1.4,2.6,2.1,5.6,2,8.6c0,7.2-4.7,13.1-12,13.1C4,346.8,0,340.3,0,332.9z"/>
		<path id="Path_18" class="st1" d="M0,294.1c0-7.4,4.9-12.5,12-12.5c7.1,0,12.1,5.1,12.1,12.5c0,7.4-5,12.5-12.1,12.5
			C4.9,306.7,0,301.5,0,294.1z M18,294.1c0-3.3-2.4-5.5-5.9-5.5c-3.5,0-5.9,2.2-5.9,5.5c0,3.4,2.4,5.6,5.9,5.6
			C15.5,299.7,18,297.4,18,294.1z"/>
		<path id="Path_19" class="st1" d="M23.7,243.8v18.1H0.3V255h17.9v-11.2H23.7z"/>
		<path id="Path_20" class="st1" d="M0.3,213.8c0-7.6,3.9-12.2,11.6-12.2c7.7,0,11.8,4.5,11.8,12.2v10.7H0.3L0.3,213.8z M11.9,208.6
			c-4.1,0-6,2.1-6,5.6v3.5h12.2v-3.5C18.2,210.6,15.8,208.6,11.9,208.6L11.9,208.6z"/>
		<path id="Path_21" class="st1" d="M23.7,155.3H0.3v-12.4c0-3.8,2.2-7.1,6.1-7.1c1.7,2.9,5.3,3.9,8.2,2.2c1.3-0.7,2.3-1.9,2.7-3.4
			c4,0,6.4,3.2,6.4,7.1L23.7,155.3z M5.5,148.7h4v-4.4c-0.1-1.1-1.1-1.9-2.2-1.8c-1,0.1-1.8,0.9-1.8,1.9V148.7z M14.4,148.7h4.4
			v-4.8c-0.1-1.2-1.1-2.1-2.3-2.1c-1.1,0.1-2,1-2.1,2.1V148.7z"/>
		<path id="Path_22" class="st1" d="M23.7,100.5l-6.4,4.5v3h6.4v6.8H0.3V103c0-5.8,3.7-9.1,8.4-9.1c3-0.1,5.8,1.6,7.1,4.2l7.8-5.8
			V100.5z M6,108.1h5.8v-3.9c0-2-1-3.3-2.9-3.3c-2,0-2.9,1.2-2.9,3.3V108.1z"/>
		<path id="Path_23" class="st1" d="M23.7,54.7V73H0.3V54.8h5.5v11.3h3.3V55.9h5.5v10.1h3.6V54.7H23.7z"/>
		<path id="Path_24" class="st1" d="M0.3,36.1v-6.8l16-3.9L0.7,20.6v-5.2l15.7-4.8l-16-3.9V0l23.4,6.2v8L12.5,18l11.2,3.8v8.1
			L0.3,36.1z"/>
	</g>
</g>
</svg>
