<?xml version="1.0" encoding="utf-8"?>
<!-- Generator: Adobe Illustrator 25.2.3, SVG Export Plug-In . SVG Version: 6.00 Build 0)  -->
<svg version="1.1" id="Layer_1" xmlns="http://www.w3.org/2000/svg" xmlns:xlink="http://www.w3.org/1999/xlink" x="0px" y="0px"
	 viewBox="0 0 350.9 350.9" style="enable-background:new 0 0 350.9 350.9;" xml:space="preserve">
<style type="text/css">
	.st0{fill:#FFFFFF;}
</style>
<path id="Path_26" class="st0" d="M175.5,0C78.6,0,0,78.6,0,175.5s78.6,175.5,175.5,175.5s175.5-78.6,175.5-175.5l0,0
	C350.9,78.6,272.4,0,175.5,0z M194.7,113.3c-3.3,0.1-6.5,0.6-9.7,1.5c-2,0.7-3.5,2.3-4.2,4.2c-0.9,3.3-1.3,6.7-1.1,10.2v91.6
	c-0.2,3.4,0.2,6.9,1.1,10.2c0.6,2,2.2,3.6,4.2,4.2c3.2,0.9,6.4,1.4,9.7,1.5v3.7c-5.7-0.4-13.5-0.6-23.5-0.6
	c-10.6,0-18.5,0.2-23.6,0.6v-3.7c3.3-0.1,6.5-0.6,9.7-1.5c2-0.7,3.5-2.3,4.2-4.2c0.9-3.3,1.3-6.7,1.1-10.2v-99.1L118,241.3h-3
	L68.5,121.4v97.6c-0.2,3.6,0.3,7.2,1.2,10.7c0.8,2.3,2.5,4.1,4.7,5.1c3.5,1.3,7.2,1.9,10.9,1.9v3.7c-4.4-0.4-10.7-0.6-18.8-0.6
	c-7.4,0-13.1,0.2-17.2,0.6v-3.7c3.3,0,6.6-0.7,9.6-1.9c2.1-1,3.6-2.9,4.2-5.2c0.9-3.5,1.2-7,1.1-10.6v-89.8
	c0.2-3.4-0.2-6.9-1.1-10.2c-0.6-2-2.2-3.6-4.2-4.2c-3.2-0.9-6.4-1.4-9.7-1.5v-3.7c4.1,0.4,9.8,0.6,17.2,0.6c6.4,0,11.6-0.2,15.7-0.6
	l40.6,107l39.7-106.4h8.7c10,0,17.8-0.2,23.5-0.6L194.7,113.3z M269.8,242.7c-18.3,1.8-39.8-4.4-51.4-19.8
	c-14.9-19.7-15.7-38.1-13.6-59.3c2-20.1,11.3-40,29.4-49.7c17.3-10.2,38.8-10.1,56.1,0.2c6.1,3.5,10.3,9.7,11.1,16.7
	c0,0.7,0,1.4-0.1,2.1l-0.1,0c-0.2,2.4-1.2,4.7-2.8,6.5c-2,2.2-5,3.5-8,3.3c-2.9,0.1-5.8-1-7.9-3c-2-2-3.1-4.8-3-7.7
	c-0.1-2.8,0.9-5.6,2.9-7.7c1.8-2,4.4-3.1,7.1-3.1c0.4,0,0.8,0,1.2,0.1l0.6,0.1c0-2.1-1.1-4.1-2.9-5.2c-3.9-3-8.3-5-13.1-6.1
	c-8.2-1.9-16.8-1-24.4,2.6c-14.3,6.3-23.1,24.4-26,39.7c-3.7,18.3-2.2,37.2,4.2,54.7c3.5,9.7,9.8,18.2,18.1,24.4
	c7.4,5,16.2,7.2,25.1,6.4c8.3-1,16-4.8,22-10.6c3.3-2.9,6.2-6.1,8.7-9.7c1.3-1.8,2.4-3.7,3.5-5.7c0.9-1.7,1.4-0.7,3,0
	C302.7,228.6,287.6,240.4,269.8,242.7L269.8,242.7z"/>
</svg>
